<svg xmlns="http://www.w3.org/2000/svg" xmlns:xlink="http://www.w3.org/1999/xlink" viewBox="0 0 153.88 142.87"><defs><style>.cls-1{fill:#2d3b3f;}.cls-2{fill:url(#linear-gradient);}.cls-3{fill:url(#linear-gradient-2);}.cls-4{fill:url(#linear-gradient-3);}.cls-5{fill:url(#linear-gradient-4);}</style><linearGradient id="linear-gradient" x1="64.61" y1="33.55" x2="68.61" y2="33.55" gradientUnits="userSpaceOnUse"><stop offset="0" stop-color="#36d3f2"/><stop offset="1" stop-color="#6fefe6"/></linearGradient><linearGradient id="linear-gradient-2" x1="52.8" y1="43.82" x2="101.07" y2="43.82" xlink:href="#linear-gradient"/><linearGradient id="linear-gradient-3" x1="24.4" y1="43.88" x2="129.47" y2="43.88" xlink:href="#linear-gradient"/><linearGradient id="linear-gradient-4" x1="62.14" y1="54.71" x2="101.07" y2="54.71" xlink:href="#linear-gradient"/></defs><title>imgr_logo</title><g id="Layer_2" data-name="Layer 2"><g id="Layer_1-2" data-name="Layer 1"><path class="cls-1" d="M0,99.67H12V142H0Z"/><path class="cls-1" d="M55.43,142l-.12-22.45-10.9,18.28H39.09L28.26,120.18V142H17.18V99.67h9.87l14.88,24.44L56.46,99.67h9.86L66.44,142Z"/><path class="cls-1" d="M100,119.94h10.59v17.55a27.72,27.72,0,0,1-8.35,4,33.15,33.15,0,0,1-9.44,1.39,25.3,25.3,0,0,1-12-2.81,21,21,0,0,1-8.35-7.84,22.87,22.87,0,0,1,0-22.75,20.94,20.94,0,0,1,8.41-7.84A25.92,25.92,0,0,1,93,98.82a26.89,26.89,0,0,1,10.65,2,20.43,20.43,0,0,1,7.87,5.75l-7.62,6.89a13.48,13.48,0,0,0-10.29-4.72,11.38,11.38,0,0,0-12.1,12.11A12.77,12.77,0,0,0,83,127.11a10.8,10.8,0,0,0,4.24,4.29A12.39,12.39,0,0,0,93.49,133a15.41,15.41,0,0,0,6.47-1.39Z"/><path class="cls-1" d="M133.36,130.77h-6.53V142h-12V99.67h19.36a24.15,24.15,0,0,1,10,1.9,14.77,14.77,0,0,1,6.54,5.45,15,15,0,0,1,2.3,8.32,14.8,14.8,0,0,1-2.15,8,14.5,14.5,0,0,1-6.14,5.35L153.88,142H141.05Zm5.69-20a8.27,8.27,0,0,0-5.57-1.63h-6.65v12.4h6.65a8.37,8.37,0,0,0,5.57-1.6,5.69,5.69,0,0,0,1.88-4.57A5.78,5.78,0,0,0,139.05,110.74Z"/><path class="cls-2" d="M66.61,31.55a2,2,0,1,0,2,2A2,2,0,0,0,66.61,31.55Z"/><path class="cls-3" d="M97.6,19.74H56.28a3.48,3.48,0,0,0-3.48,3.48V64.54a3.47,3.47,0,0,0,2.59,3.35L87,36.26a2.4,2.4,0,0,1,3.43,0l10.61,10.61V23.22A3.48,3.48,0,0,0,97.6,19.74Zm-31,20.66a6.86,6.86,0,1,1,6.85-6.85A6.86,6.86,0,0,1,66.61,40.4Z"/><path class="cls-4" d="M118,16.94C101.09-3.32,73.61,0,68.37.57,60.8,1.48,37.9,4.35,28.25,23.8,20.21,40,26,58.5,34.46,69.58,49.82,89.66,77.71,90.21,95.05,84.89c6.32-1.94,26-8,32.51-26.81C134.68,37.4,119.76,19,118,16.94Zm-12.1,35.79h0V64.54a8.34,8.34,0,0,1-8.33,8.33H56.28A8.34,8.34,0,0,1,48,64.54V23.22a8.34,8.34,0,0,1,8.33-8.34H97.6a8.35,8.35,0,0,1,8.33,8.34Z"/><path class="cls-5" d="M62.14,68H97.6a3.48,3.48,0,0,0,3.47-3.47V53.74L88.74,41.41Z"/></g></g></svg>