<svg xmlns="http://www.w3.org/2000/svg" viewBox="0 0 140.38 111.17"><defs><style>.cls-1{fill:none;stroke:#fff;stroke-miterlimit:10;}.cls-2{fill:#fff;}</style></defs><title>imgr_2</title><g id="Layer_2" data-name="Layer 2"><g id="Layer_1-2" data-name="Layer 1"><path class="cls-1" d="M60.28,1.16C50.21,1.69,19.48,3.47,6.87,27.7c-10.44,20.06-2.17,43.7,9.36,58C36.75,111,72.75,113,94.84,107.41c8-2,32.86-8.28,41.35-30.53,9.41-24.67-9.11-48.38-11.29-51.09C103.32-1.06,67.23.81,60.28,1.16Z"/><path class="cls-1" d="M41.89,7.55C32.58,11.27,4.24,22.78.83,49.65-2,71.9,14.05,91.53,29.89,101.27c28.2,17.33,62.82,7.66,81.69-4.66,6.84-4.46,28.08-18.32,28.3-42,.25-26.26-25.49-42.68-28.48-44.53C81.67-8.32,48.31,5,41.89,7.55Z"/><path class="cls-2" d="M103.36,34.64a2,2,0,0,0-1.34-.92l-.13,6.84q-.21,4.59-.21,7.12c0,1.6,0,2.65.07,3.15a35.06,35.06,0,0,0,2.33-2.67l1-5.89a4.7,4.7,0,0,0,.07-1,16.84,16.84,0,0,0-.75-4.58A7.44,7.44,0,0,0,103.36,34.64Z"/><path class="cls-2" d="M120.29,26.44C99.84,3.53,66.67,7.23,60.34,7.94,51.2,9,23.55,12.21,11.91,34.19,2.2,52.52,9.18,73.42,19.4,85.94c18.54,22.7,52.22,23.32,73.15,17.3,7.63-2.19,31.41-9,39.24-30.3C140.39,49.57,122.38,28.78,120.29,26.44ZM40.78,81.14,39.07,82.3l-.41,0c-.23,0-.69,0-1.37,0-1.55.1-2.51.14-2.87.14q-5.9,0-5.89-2.05c0-1.1.69-1.64,2-1.64h.83a2.8,2.8,0,0,0,.61.06.89.89,0,0,0,.79-.34,2.28,2.28,0,0,0,.24-1.23q0-5.82-.69-15.88-.62-10.47-.61-15.8c0-1.28,0-2.44.07-3.49l.06-3.49a28.33,28.33,0,0,0-.2-3.77,4.4,4.4,0,0,1-1.57.28c-1.05,0-1.58-.55-1.58-1.65a1.73,1.73,0,0,1,1-1.43,7.17,7.17,0,0,1,2.57-.89A30.3,30.3,0,0,1,37,30.71a2,2,0,0,1,1.4.55,1.71,1.71,0,0,1,.58,1.3,2,2,0,0,1-.44,1.3,1.42,1.42,0,0,1-1.13.54,2.77,2.77,0,0,1-.69-.07h-.54a1.41,1.41,0,0,0-1,.31,1.63,1.63,0,0,0-.3,1.13q0,7.26.89,20,.81,13.35.82,20v2.6a11.74,11.74,0,0,1,1.37-.06c1.91,0,2.87.8,2.87,2.39Zm26.62,2a2.28,2.28,0,0,1-1.85,1.23,1.22,1.22,0,0,1-1.09-.69,3.8,3.8,0,0,1-.41-2L64,71.56c0-.86-.07-2.3-.07-4.31q-.13-6.36-.14-14.37V49.39q-.62,3.28-2.12,9.24-1.5,6.15-2.12,10.13v.41l-.21,1.3a13.15,13.15,0,0,1-.68,3.08,2.26,2.26,0,0,1-2.12,1.64c-1.64,0-2.46-2.15-2.46-6.43a44,44,0,0,0-.72-7.64q-.72-4.07-2.3-10l-2-7.66-.14,8.21q0,3.69.35,14.09l.13,4.66.14,9.37a3.8,3.8,0,0,1-1,2.6,2.54,2.54,0,0,1-2.36-1.06,6,6,0,0,1-.65-3.11l.14-5.61c.14-2.47.21-4.31.21-5.54l-.14-13.21L45.5,40.56q0-2.94.14-8.83l1.85-1.09a1.79,1.79,0,0,1,1.09.79,10.81,10.81,0,0,1,1.23,2.29q1.71,4.24,4.45,17a29.56,29.56,0,0,1,.55,2.94c.55,2.65.93,4.66,1.16,6l1,5.27.48-2.25,1.3-5.62q1.09-4.92,1.81-8.62t1.4-8q.75-5.15,1-8.56v-.41a2.09,2.09,0,0,1,.82-1.4,2.68,2.68,0,0,1,1.65-.52,1.44,1.44,0,0,1,1.09.55A1.75,1.75,0,0,1,67,31.26q0,8.2.61,24.56.34,8,.48,15.67.14,3.49.14,8.83A5,5,0,0,1,67.4,83.13Zm27,.27a1.51,1.51,0,0,1-1.16.55,2.3,2.3,0,0,1-2.33-1.44v-.07l-1.51.76a7.45,7.45,0,0,1-3.49,1.16,8.86,8.86,0,0,1-6.22-2.26,14.14,14.14,0,0,1-3.63-5.61,32.35,32.35,0,0,1-1.64-7.32A58.66,58.66,0,0,1,74,61.91c0-.59-.07-1.62-.07-3.08V53.77q0-2.94.2-7.05a50.64,50.64,0,0,1,1.1-7.12,18.15,18.15,0,0,1,2.6-6,9.35,9.35,0,0,1,4.59-3.69,11.85,11.85,0,0,1,3.21-.48c1.92,0,2.87.64,2.87,1.91a1.49,1.49,0,0,1-.51,1.2,2,2,0,0,1-1.33.45,3.79,3.79,0,0,1-1-.21l-1-.13a3.71,3.71,0,0,0-2.32.78,5.93,5.93,0,0,0-1.72,2.29,24.52,24.52,0,0,0-2.12,7.19,63.51,63.51,0,0,0-.82,8.35q-.14,3.07-.14,6.5v1.85c0,.64-.06,1.43-.06,2.39a66.65,66.65,0,0,0,.34,6.84,21,21,0,0,0,1.5,6.85,7.56,7.56,0,0,0,3.56,4.51,5.58,5.58,0,0,0,2.88.69A6.06,6.06,0,0,0,90.87,78c-.05-1.59-.16-3.15-.34-4.68a7.92,7.92,0,0,0-.82-3.12l-.31,0-.72.1L87,70.47c-1.55,0-2.33-.66-2.33-2a1.34,1.34,0,0,1,.69-1.09,4.6,4.6,0,0,1,1.84-.69,14.28,14.28,0,0,1,3.42-.48,2.51,2.51,0,0,1,2.13,1,4.28,4.28,0,0,1,.75,2.6A38.4,38.4,0,0,0,94.22,76a36.35,36.35,0,0,1,.69,6.09A1.92,1.92,0,0,1,94.43,83.4Zm18.41-3.22a8.15,8.15,0,0,1-.21,2,1.28,1.28,0,0,1-1.44,1.09c-.86,0-1.71-.61-2.53-1.84v-.21a49,49,0,0,0-1.23-8.07q-1-4.45-3-10.75c-1-3.15-1.85-6-2.53-8.48v27a2.77,2.77,0,0,1-.38,1.61A1.73,1.73,0,0,1,100,83a1.69,1.69,0,0,1-1.3-.51,1.9,1.9,0,0,1-.48-1.34v-.55l.14-20.11q.13-8.91.13-20V32a1.47,1.47,0,0,1,.35-1.13,2.22,2.22,0,0,1,1.43-.31,7.62,7.62,0,0,1,3.15.65A7.28,7.28,0,0,1,105.92,33a11.65,11.65,0,0,1,2.74,5.75,16.44,16.44,0,0,1,.27,3.15,15.57,15.57,0,0,1-.17,2.26c-.11.82-.19,1.35-.24,1.57a16.59,16.59,0,0,1-.61,2.06c-.32.91-.53,1.5-.62,1.78l-.82,1.91-.68,1.78a36.43,36.43,0,0,0,.85,6.23c.53,2.51,1.11,4.83,1.75,7q.67,2.25,2.46,7.53l2,6Z"/></g></g></svg>